<mxfile host="app.diagrams.net" modified="2025-01-29T11:45:27.844Z" agent="Mozilla/5.0 (X11; Linux x86_64) AppleWebKit/537.36 (KHTML, like Gecko) Chrome/132.0.0.0 Safari/537.36" etag="lPOnCsLM54cDoCjjXGiN" version="24.3.1" type="device">
  <diagram name="Auto Encoder (AE)" id="_Bmku1SudM6StRFv8J6b">
    <mxGraphModel dx="943" dy="520" grid="1" gridSize="10" guides="1" tooltips="1" connect="1" arrows="1" fold="1" page="1" pageScale="1" pageWidth="850" pageHeight="1100" math="0" shadow="0">
      <root>
        <mxCell id="2L0hXL62CxC1ZSmFVwGG-0" />
        <mxCell id="2L0hXL62CxC1ZSmFVwGG-1" parent="2L0hXL62CxC1ZSmFVwGG-0" />
        <mxCell id="2L0hXL62CxC1ZSmFVwGG-95" value="" style="group;fontSize=9;textShadow=1;labelBorderColor=none;labelBackgroundColor=none;" parent="2L0hXL62CxC1ZSmFVwGG-1" vertex="1" connectable="0">
          <mxGeometry x="320" y="560" width="40" height="40" as="geometry" />
        </mxCell>
        <mxCell id="2L0hXL62CxC1ZSmFVwGG-96" value="y0" style="ellipse;aspect=fixed;strokeColor=#82b366;fillColor=#d5e8d4;textShadow=1;labelBorderColor=none;labelBackgroundColor=none;" parent="2L0hXL62CxC1ZSmFVwGG-95" vertex="1">
          <mxGeometry width="40" height="40" as="geometry" />
        </mxCell>
        <mxCell id="2L0hXL62CxC1ZSmFVwGG-99" value="" style="group;textShadow=1;labelBorderColor=none;labelBackgroundColor=none;" parent="2L0hXL62CxC1ZSmFVwGG-1" vertex="1" connectable="0">
          <mxGeometry x="400" y="560" width="40" height="40" as="geometry" />
        </mxCell>
        <mxCell id="2L0hXL62CxC1ZSmFVwGG-100" value="y1" style="ellipse;aspect=fixed;strokeColor=#82b366;fillColor=#d5e8d4;textShadow=1;labelBorderColor=none;labelBackgroundColor=none;" parent="2L0hXL62CxC1ZSmFVwGG-99" vertex="1">
          <mxGeometry width="40" height="40" as="geometry" />
        </mxCell>
        <mxCell id="2L0hXL62CxC1ZSmFVwGG-117" value="" style="endArrow=none;rounded=0;fontSize=24;exitX=0.5;exitY=1;exitDx=0;exitDy=0;entryX=1;entryY=0;entryDx=0;entryDy=0;fillColor=#dae8fc;strokeColor=#6c8ebf;textShadow=1;labelBorderColor=none;labelBackgroundColor=none;" parent="2L0hXL62CxC1ZSmFVwGG-1" source="2L0hXL62CxC1ZSmFVwGG-94" target="2L0hXL62CxC1ZSmFVwGG-100" edge="1">
          <mxGeometry width="50" height="50" relative="1" as="geometry">
            <mxPoint x="380" y="620" as="sourcePoint" />
            <mxPoint x="410" y="640" as="targetPoint" />
          </mxGeometry>
        </mxCell>
        <mxCell id="D7NjAx7LVdkUnGVcUzy2-22" value="W5" style="edgeLabel;align=center;verticalAlign=middle;resizable=0;points=[];textShadow=1;labelBorderColor=none;labelBackgroundColor=none;" vertex="1" connectable="0" parent="2L0hXL62CxC1ZSmFVwGG-117">
          <mxGeometry x="-0.2947" y="-3" relative="1" as="geometry">
            <mxPoint as="offset" />
          </mxGeometry>
        </mxCell>
        <mxCell id="MN_jcWDkAgEbbNPqeQ9V-16" value="" style="group" parent="2L0hXL62CxC1ZSmFVwGG-1" vertex="1" connectable="0">
          <mxGeometry x="40" y="460" width="180" height="180" as="geometry" />
        </mxCell>
        <mxCell id="MN_jcWDkAgEbbNPqeQ9V-1" value="" style="ellipse;whiteSpace=wrap;html=1;aspect=fixed;strokeColor=#82b366;fillColor=#d5e8d4;" parent="MN_jcWDkAgEbbNPqeQ9V-16" vertex="1">
          <mxGeometry y="70" width="40" height="40" as="geometry" />
        </mxCell>
        <mxCell id="MN_jcWDkAgEbbNPqeQ9V-7" value="" style="group" parent="MN_jcWDkAgEbbNPqeQ9V-16" vertex="1" connectable="0">
          <mxGeometry width="40" height="40" as="geometry" />
        </mxCell>
        <mxCell id="MN_jcWDkAgEbbNPqeQ9V-8" value="" style="ellipse;whiteSpace=wrap;html=1;aspect=fixed;strokeColor=#d6b656;fillColor=#fff2cc;" parent="MN_jcWDkAgEbbNPqeQ9V-7" vertex="1">
          <mxGeometry width="40" height="40" as="geometry" />
        </mxCell>
        <mxCell id="MN_jcWDkAgEbbNPqeQ9V-9" value="&lt;font style=&quot;font-size: 12px;&quot;&gt;Output Cell&lt;/font&gt;" style="text;html=1;strokeColor=none;fillColor=none;align=left;verticalAlign=middle;whiteSpace=wrap;rounded=0;shadow=1;strokeWidth=1.5;fontSize=24;" parent="MN_jcWDkAgEbbNPqeQ9V-16" vertex="1">
          <mxGeometry x="50" y="76" width="130" height="30" as="geometry" />
        </mxCell>
        <mxCell id="MN_jcWDkAgEbbNPqeQ9V-11" value="&lt;font style=&quot;font-size: 12px;&quot;&gt;Input Cell&lt;/font&gt;" style="text;html=1;strokeColor=none;fillColor=none;align=left;verticalAlign=middle;whiteSpace=wrap;rounded=0;shadow=1;strokeWidth=1.5;fontSize=24;" parent="MN_jcWDkAgEbbNPqeQ9V-16" vertex="1">
          <mxGeometry x="50" y="3" width="130" height="30" as="geometry" />
        </mxCell>
        <mxCell id="2L0hXL62CxC1ZSmFVwGG-93" value="x2" style="ellipse;aspect=fixed;strokeColor=#d6b656;fillColor=#fff2cc;textShadow=1;labelBorderColor=none;labelBackgroundColor=none;" parent="2L0hXL62CxC1ZSmFVwGG-1" vertex="1">
          <mxGeometry x="400" y="460" width="40" height="40" as="geometry" />
        </mxCell>
        <mxCell id="2L0hXL62CxC1ZSmFVwGG-94" value="x3" style="ellipse;aspect=fixed;strokeColor=#d6b656;fillColor=#fff2cc;textShadow=1;labelBorderColor=none;labelBackgroundColor=none;" parent="2L0hXL62CxC1ZSmFVwGG-1" vertex="1">
          <mxGeometry x="480" y="460" width="40" height="40" as="geometry" />
        </mxCell>
        <mxCell id="D7NjAx7LVdkUnGVcUzy2-1" value="x0" style="ellipse;aspect=fixed;strokeColor=#d6b656;fillColor=#fff2cc;textShadow=1;labelBorderColor=none;labelBackgroundColor=none;" vertex="1" parent="2L0hXL62CxC1ZSmFVwGG-1">
          <mxGeometry x="240" y="460" width="40" height="40" as="geometry" />
        </mxCell>
        <mxCell id="D7NjAx7LVdkUnGVcUzy2-0" value="x1" style="ellipse;aspect=fixed;strokeColor=#d6b656;fillColor=#fff2cc;textShadow=1;labelBorderColor=none;labelBackgroundColor=none;" vertex="1" parent="2L0hXL62CxC1ZSmFVwGG-1">
          <mxGeometry x="320" y="460" width="40" height="40" as="geometry" />
        </mxCell>
        <mxCell id="D7NjAx7LVdkUnGVcUzy2-2" value="x4" style="ellipse;aspect=fixed;strokeColor=#d6b656;fillColor=#fff2cc;textShadow=1;labelBorderColor=none;labelBackgroundColor=none;" vertex="1" parent="2L0hXL62CxC1ZSmFVwGG-1">
          <mxGeometry x="560" y="460" width="40" height="40" as="geometry" />
        </mxCell>
        <mxCell id="D7NjAx7LVdkUnGVcUzy2-3" value="" style="group;textShadow=1;labelBorderColor=none;labelBackgroundColor=none;" vertex="1" connectable="0" parent="2L0hXL62CxC1ZSmFVwGG-1">
          <mxGeometry x="480" y="560" width="40" height="40" as="geometry" />
        </mxCell>
        <mxCell id="D7NjAx7LVdkUnGVcUzy2-4" value="y2" style="ellipse;aspect=fixed;strokeColor=#82b366;fillColor=#d5e8d4;textShadow=1;labelBorderColor=none;labelBackgroundColor=none;" vertex="1" parent="D7NjAx7LVdkUnGVcUzy2-3">
          <mxGeometry width="40" height="40" as="geometry" />
        </mxCell>
        <mxCell id="D7NjAx7LVdkUnGVcUzy2-6" value="" style="endArrow=none;rounded=0;fontSize=24;exitX=0;exitY=0;exitDx=0;exitDy=0;entryX=0.5;entryY=1;entryDx=0;entryDy=0;fillColor=#f8cecc;strokeColor=#b85450;textShadow=1;labelBorderColor=none;labelBackgroundColor=none;" edge="1" parent="2L0hXL62CxC1ZSmFVwGG-1" source="2L0hXL62CxC1ZSmFVwGG-96" target="D7NjAx7LVdkUnGVcUzy2-1">
          <mxGeometry width="50" height="50" relative="1" as="geometry">
            <mxPoint x="280" y="560" as="sourcePoint" />
            <mxPoint x="214" y="626" as="targetPoint" />
          </mxGeometry>
        </mxCell>
        <mxCell id="D7NjAx7LVdkUnGVcUzy2-14" value="W0" style="edgeLabel;align=center;verticalAlign=middle;resizable=0;points=[];textShadow=1;labelBorderColor=none;labelBackgroundColor=none;" vertex="1" connectable="0" parent="D7NjAx7LVdkUnGVcUzy2-6">
          <mxGeometry relative="1" as="geometry">
            <mxPoint as="offset" />
          </mxGeometry>
        </mxCell>
        <mxCell id="D7NjAx7LVdkUnGVcUzy2-7" value="" style="endArrow=none;rounded=0;fontSize=24;exitX=0.5;exitY=0;exitDx=0;exitDy=0;entryX=0.5;entryY=1;entryDx=0;entryDy=0;fillColor=#f8cecc;strokeColor=#b85450;textShadow=1;labelBorderColor=none;labelBackgroundColor=none;" edge="1" parent="2L0hXL62CxC1ZSmFVwGG-1" source="2L0hXL62CxC1ZSmFVwGG-96" target="D7NjAx7LVdkUnGVcUzy2-0">
          <mxGeometry width="50" height="50" relative="1" as="geometry">
            <mxPoint x="336" y="576" as="sourcePoint" />
            <mxPoint x="270" y="510" as="targetPoint" />
          </mxGeometry>
        </mxCell>
        <mxCell id="D7NjAx7LVdkUnGVcUzy2-15" value="W1" style="edgeLabel;align=center;verticalAlign=middle;resizable=0;points=[];textShadow=1;labelBorderColor=none;labelBackgroundColor=none;" vertex="1" connectable="0" parent="D7NjAx7LVdkUnGVcUzy2-7">
          <mxGeometry relative="1" as="geometry">
            <mxPoint as="offset" />
          </mxGeometry>
        </mxCell>
        <mxCell id="D7NjAx7LVdkUnGVcUzy2-8" value="" style="endArrow=none;rounded=0;fontSize=24;exitX=1;exitY=0;exitDx=0;exitDy=0;entryX=0;entryY=1;entryDx=0;entryDy=0;fillColor=#f8cecc;strokeColor=#b85450;textShadow=1;labelBorderColor=none;labelBackgroundColor=none;" edge="1" parent="2L0hXL62CxC1ZSmFVwGG-1" source="2L0hXL62CxC1ZSmFVwGG-96" target="2L0hXL62CxC1ZSmFVwGG-93">
          <mxGeometry width="50" height="50" relative="1" as="geometry">
            <mxPoint x="346" y="586" as="sourcePoint" />
            <mxPoint x="280" y="520" as="targetPoint" />
          </mxGeometry>
        </mxCell>
        <mxCell id="D7NjAx7LVdkUnGVcUzy2-16" value="W2" style="edgeLabel;align=center;verticalAlign=middle;resizable=0;points=[];textShadow=1;labelBorderColor=none;labelBackgroundColor=none;" vertex="1" connectable="0" parent="D7NjAx7LVdkUnGVcUzy2-8">
          <mxGeometry x="-0.3306" y="1" relative="1" as="geometry">
            <mxPoint as="offset" />
          </mxGeometry>
        </mxCell>
        <mxCell id="D7NjAx7LVdkUnGVcUzy2-9" value="" style="endArrow=none;rounded=0;fontSize=24;exitX=0;exitY=0;exitDx=0;exitDy=0;entryX=1;entryY=1;entryDx=0;entryDy=0;fillColor=#dae8fc;strokeColor=#6c8ebf;textShadow=1;labelBorderColor=none;labelBackgroundColor=none;" edge="1" parent="2L0hXL62CxC1ZSmFVwGG-1" source="2L0hXL62CxC1ZSmFVwGG-100" target="D7NjAx7LVdkUnGVcUzy2-0">
          <mxGeometry width="50" height="50" relative="1" as="geometry">
            <mxPoint x="356" y="596" as="sourcePoint" />
            <mxPoint x="290" y="530" as="targetPoint" />
          </mxGeometry>
        </mxCell>
        <mxCell id="D7NjAx7LVdkUnGVcUzy2-17" value="W3" style="edgeLabel;align=center;verticalAlign=middle;resizable=0;points=[];textShadow=1;labelBorderColor=none;labelBackgroundColor=none;" vertex="1" connectable="0" parent="D7NjAx7LVdkUnGVcUzy2-9">
          <mxGeometry x="0.3235" y="3" relative="1" as="geometry">
            <mxPoint as="offset" />
          </mxGeometry>
        </mxCell>
        <mxCell id="D7NjAx7LVdkUnGVcUzy2-10" value="" style="endArrow=none;rounded=0;fontSize=24;exitX=0.5;exitY=0;exitDx=0;exitDy=0;entryX=0.5;entryY=1;entryDx=0;entryDy=0;fillColor=#dae8fc;strokeColor=#6c8ebf;textShadow=1;labelBorderColor=none;labelBackgroundColor=none;" edge="1" parent="2L0hXL62CxC1ZSmFVwGG-1" source="2L0hXL62CxC1ZSmFVwGG-100" target="2L0hXL62CxC1ZSmFVwGG-93">
          <mxGeometry width="50" height="50" relative="1" as="geometry">
            <mxPoint x="366" y="606" as="sourcePoint" />
            <mxPoint x="300" y="540" as="targetPoint" />
          </mxGeometry>
        </mxCell>
        <mxCell id="D7NjAx7LVdkUnGVcUzy2-18" value="W4" style="edgeLabel;align=center;verticalAlign=middle;resizable=0;points=[];textShadow=1;labelBorderColor=none;labelBackgroundColor=none;" vertex="1" connectable="0" parent="D7NjAx7LVdkUnGVcUzy2-10">
          <mxGeometry relative="1" as="geometry">
            <mxPoint as="offset" />
          </mxGeometry>
        </mxCell>
        <mxCell id="D7NjAx7LVdkUnGVcUzy2-11" value="" style="endArrow=none;rounded=0;fontSize=24;exitX=0;exitY=0;exitDx=0;exitDy=0;entryX=1;entryY=1;entryDx=0;entryDy=0;fillColor=#e1d5e7;strokeColor=#9673a6;textShadow=1;labelBorderColor=none;labelBackgroundColor=none;" edge="1" parent="2L0hXL62CxC1ZSmFVwGG-1" source="D7NjAx7LVdkUnGVcUzy2-4" target="2L0hXL62CxC1ZSmFVwGG-93">
          <mxGeometry width="50" height="50" relative="1" as="geometry">
            <mxPoint x="376" y="616" as="sourcePoint" />
            <mxPoint x="310" y="550" as="targetPoint" />
          </mxGeometry>
        </mxCell>
        <mxCell id="D7NjAx7LVdkUnGVcUzy2-23" value="W6" style="edgeLabel;align=center;verticalAlign=middle;resizable=0;points=[];textShadow=1;labelBorderColor=none;labelBackgroundColor=none;" vertex="1" connectable="0" parent="D7NjAx7LVdkUnGVcUzy2-11">
          <mxGeometry x="-0.4675" y="-1" relative="1" as="geometry">
            <mxPoint as="offset" />
          </mxGeometry>
        </mxCell>
        <mxCell id="D7NjAx7LVdkUnGVcUzy2-12" value="" style="endArrow=none;rounded=0;fontSize=24;exitX=0.5;exitY=0;exitDx=0;exitDy=0;entryX=0.5;entryY=1;entryDx=0;entryDy=0;fillColor=#e1d5e7;strokeColor=#9673a6;textShadow=1;labelBorderColor=none;labelBackgroundColor=none;" edge="1" parent="2L0hXL62CxC1ZSmFVwGG-1" source="D7NjAx7LVdkUnGVcUzy2-4" target="2L0hXL62CxC1ZSmFVwGG-94">
          <mxGeometry width="50" height="50" relative="1" as="geometry">
            <mxPoint x="386" y="626" as="sourcePoint" />
            <mxPoint x="320" y="560" as="targetPoint" />
          </mxGeometry>
        </mxCell>
        <mxCell id="D7NjAx7LVdkUnGVcUzy2-24" value="W7" style="edgeLabel;align=center;verticalAlign=middle;resizable=0;points=[];textShadow=1;labelBorderColor=none;labelBackgroundColor=none;" vertex="1" connectable="0" parent="D7NjAx7LVdkUnGVcUzy2-12">
          <mxGeometry relative="1" as="geometry">
            <mxPoint as="offset" />
          </mxGeometry>
        </mxCell>
        <mxCell id="D7NjAx7LVdkUnGVcUzy2-13" value="" style="endArrow=none;rounded=0;fontSize=24;exitX=1;exitY=0;exitDx=0;exitDy=0;entryX=0.5;entryY=1;entryDx=0;entryDy=0;fillColor=#e1d5e7;strokeColor=#9673a6;textShadow=1;labelBorderColor=none;labelBackgroundColor=none;" edge="1" parent="2L0hXL62CxC1ZSmFVwGG-1" source="D7NjAx7LVdkUnGVcUzy2-4" target="D7NjAx7LVdkUnGVcUzy2-2">
          <mxGeometry width="50" height="50" relative="1" as="geometry">
            <mxPoint x="396" y="636" as="sourcePoint" />
            <mxPoint x="330" y="570" as="targetPoint" />
            <Array as="points" />
          </mxGeometry>
        </mxCell>
        <mxCell id="D7NjAx7LVdkUnGVcUzy2-25" value="W8" style="edgeLabel;align=center;verticalAlign=middle;resizable=0;points=[];textShadow=1;labelBorderColor=none;labelBackgroundColor=none;" vertex="1" connectable="0" parent="D7NjAx7LVdkUnGVcUzy2-13">
          <mxGeometry relative="1" as="geometry">
            <mxPoint as="offset" />
          </mxGeometry>
        </mxCell>
      </root>
    </mxGraphModel>
  </diagram>
</mxfile>
